<?xml version="1.0" standalone="no"?>
<!DOCTYPE svg PUBLIC "-//W3C//DTD SVG 20010904//EN"
 "http://www.w3.org/TR/2001/REC-SVG-20010904/DTD/svg10.dtd">
<svg version="1.0" xmlns="http://www.w3.org/2000/svg"
 width="512.000000pt" height="512.000000pt" viewBox="0 0 512.000000 512.000000"
 preserveAspectRatio="xMidYMid meet">
<metadata>
Created by potrace 1.11, written by Peter Selinger 2001-2013
</metadata>
<g transform="translate(0.000000,512.000000) scale(0.100000,-0.100000)"
fill="#000000" stroke="none">
<path d="M2365 4130 l-230 -230 300 -300 300 -301 -45 8 c-25 4 -90 8 -145 7
-325 -4 -610 -216 -711 -529 -51 -156 -43 -361 19 -515 54 -134 78 -161 534
-620 l443 -445 -153 -153 -153 -152 -440 442 c-494 497 -537 549 -627 758
-129 301 -120 668 21 965 57 118 110 199 181 277 28 31 51 60 51 65 0 5 -16
25 -36 44 l-36 34 -35 -40 c-82 -94 -156 -204 -208 -306 -95 -190 -135 -363
-135 -579 0 -271 70 -503 222 -733 51 -77 143 -174 552 -585 l491 -492 230
230 230 230 -300 300 -300 301 45 -8 c25 -4 90 -8 145 -7 325 4 610 216 711
529 51 156 43 361 -19 515 -54 134 -78 161 -534 620 l-443 445 153 153 153
152 440 -442 c494 -497 537 -549 627 -758 129 -301 120 -668 -21 -965 -57
-118 -110 -199 -181 -277 -28 -31 -51 -60 -51 -65 0 -5 16 -25 36 -44 l36 -34
35 40 c147 169 254 364 304 560 26 101 32 145 36 276 10 299 -56 535 -219 782
-51 77 -142 173 -552 585 l-491 492 -230 -230z m322 -935 c128 -24 232 -82
333 -184 134 -135 190 -269 190 -456 0 -186 -57 -322 -190 -456 -70 -70 -102
-94 -170 -127 -195 -93 -390 -94 -580 -1 -69 34 -101 58 -170 128 -134 135
-190 269 -190 456 0 186 57 322 190 456 70 70 102 94 170 127 141 68 268 85
417 57z"/>
</g>
</svg>
